<?xml version="1.0" encoding="UTF-8"?>
<svg xmlns="http://www.w3.org/2000/svg" xmlns:xlink="http://www.w3.org/1999/xlink" width="150px" height="104px" viewBox="0 0 150 104" version="1.1">
<g id="surface1">
<path style=" stroke:none;fill-rule:nonzero;fill:rgb(10.196079%,9.019608%,28.235295%);fill-opacity:1;" d="M 25.859375 61.769531 C 20.28125 64.976562 18.328125 72.347656 21.148438 77.996094 C 21.519531 78.714844 21.953125 79.414062 22.472656 80.046875 C 22.691406 80.332031 23.515625 81.464844 23.90625 81.464844 C 23.90625 81.464844 52.527344 81.464844 52.527344 81.464844 C 52.527344 80.132812 52.527344 78.824219 52.527344 77.496094 C 52.527344 75.683594 52.632812 73.875 52.113281 72.128906 C 51.417969 69.796875 49.984375 67.921875 48.378906 66.132812 C 46.726562 64.300781 44.753906 62.753906 42.558594 61.640625 C 40.476562 60.59375 38.195312 59.9375 35.851562 59.765625 C 32.441406 59.480469 28.835938 60.070312 25.859375 61.769531 Z M 25.859375 61.769531 "/>
<path style=" stroke:none;fill-rule:nonzero;fill:rgb(24.313726%,39.215687%,68.627453%);fill-opacity:1;" d="M 0 7.75 L 0 81.464844 C 0 81.464844 12.550781 81.53125 12.550781 81.53125 C 12.074219 81.550781 11.574219 78.476562 11.488281 78.128906 C 9.292969 69.164062 12.527344 59.394531 20.996094 55.03125 C 21.105469 54.964844 21.234375 54.902344 21.34375 54.855469 C 22.410156 54.332031 23.539062 53.875 24.6875 53.503906 C 31.464844 51.300781 39.300781 51.695312 45.773438 54.421875 C 48.226562 55.445312 50.507812 56.863281 52.527344 58.609375 L 52.527344 7.75 Z M 35.980469 46.898438 C 30.441406 46.898438 25.949219 42.382812 25.949219 36.820312 C 25.949219 31.257812 30.441406 26.746094 35.980469 26.746094 C 41.515625 26.746094 46.011719 31.257812 46.011719 36.820312 C 46.011719 42.382812 41.515625 46.898438 35.980469 46.898438 Z M 35.980469 46.898438 "/>
<path style=" stroke:none;fill-rule:nonzero;fill:rgb(10.196079%,9.019608%,28.235295%);fill-opacity:1;" d="M 61.710938 7.75 L 69.960938 7.75 L 69.960938 28.839844 L 61.710938 28.839844 Z M 61.710938 7.75 "/>
<path style=" stroke:none;fill-rule:nonzero;fill:rgb(10.196079%,9.019608%,28.235295%);fill-opacity:1;" d="M 61.777344 60.417969 L 70.027344 60.417969 L 70.027344 81.441406 L 61.777344 81.441406 Z M 61.777344 60.417969 "/>
<path style=" stroke:none;fill-rule:nonzero;fill:rgb(10.196079%,9.019608%,28.235295%);fill-opacity:1;" d="M 61.710938 35.230469 L 69.960938 35.230469 L 69.960938 53.808594 L 61.710938 53.808594 Z M 61.710938 35.230469 "/>
<path style=" stroke:none;fill-rule:nonzero;fill:rgb(23.137255%,36.078432%,66.666669%);fill-opacity:1;" d="M 44.363281 97.210938 C 44.363281 96.367188 43.679688 95.683594 42.839844 95.683594 C 42.003906 95.683594 41.320312 96.367188 41.320312 97.210938 C 41.320312 98.054688 42.003906 98.738281 42.839844 98.738281 C 43.679688 98.738281 44.363281 98.054688 44.363281 97.210938 Z M 44.363281 97.210938 "/>
<path style=" stroke:none;fill-rule:nonzero;fill:rgb(26.274511%,40.784314%,69.411767%);fill-opacity:1;" d="M 93.542969 97.230469 C 93.542969 96.390625 92.863281 95.707031 92.023438 95.707031 C 91.183594 95.707031 90.503906 96.390625 90.503906 97.230469 C 90.503906 98.074219 91.183594 98.757812 92.023438 98.757812 C 92.863281 98.757812 93.542969 98.074219 93.542969 97.230469 Z M 93.542969 97.230469 "/>
<path style=" stroke:none;fill-rule:nonzero;fill:rgb(27.058825%,27.058825%,27.058825%);fill-opacity:1;" d="M 11.203125 98.277344 C 11.203125 97.800781 11.335938 97.40625 11.550781 97.125 L 11.3125 96.753906 C 10.964844 96.273438 10.902344 95.878906 10.902344 95.355469 L 10.902344 94.570312 L 10.207031 94.570312 L 10.207031 93.4375 L 16.175781 93.4375 L 16.175781 94.570312 L 15.351562 94.570312 L 15.351562 101.027344 L 13.984375 101.027344 L 13.984375 98.234375 C 13.960938 97.886719 13.789062 97.710938 13.398438 97.710938 L 13.136719 97.710938 C 12.789062 97.710938 12.59375 97.84375 12.59375 98.300781 L 12.59375 98.496094 C 12.59375 99.71875 12.203125 100.265625 10.945312 100.265625 C 10.726562 100.265625 10.507812 100.21875 10.488281 100.21875 L 10.488281 99.042969 L 10.75 99.042969 C 11.160156 99.042969 11.226562 98.847656 11.226562 98.476562 L 11.226562 98.277344 Z M 13.984375 94.59375 L 12.289062 94.59375 L 12.289062 95.378906 C 12.289062 95.816406 12.378906 96.054688 12.59375 96.382812 L 12.722656 96.601562 C 12.769531 96.601562 12.832031 96.578125 12.875 96.578125 L 13.265625 96.578125 C 13.679688 96.578125 13.832031 96.6875 13.960938 96.796875 L 13.960938 94.59375 Z M 13.984375 94.59375 "/>
<path style=" stroke:none;fill-rule:nonzero;fill:rgb(27.058825%,27.058825%,27.058825%);fill-opacity:1;" d="M 18.5 93.199219 C 19.867188 93.199219 20.519531 93.960938 20.519531 95.160156 C 20.519531 96.339844 19.867188 97.125 18.5 97.125 C 17.132812 97.125 16.503906 96.359375 16.503906 95.160156 C 16.503906 93.984375 17.132812 93.199219 18.5 93.199219 Z M 19.585938 101.027344 L 19.238281 100.003906 C 18.914062 99.042969 18.652344 98.976562 17.785156 98.976562 L 16.894531 98.976562 L 16.894531 97.648438 L 17.804688 97.648438 C 19.390625 97.648438 20.019531 97.863281 20.5625 99.609375 L 21.019531 101.050781 L 19.585938 101.050781 Z M 18.5 95.988281 C 19.019531 95.988281 19.238281 95.75 19.238281 95.160156 C 19.238281 94.59375 19.019531 94.332031 18.5 94.332031 C 17.980469 94.332031 17.761719 94.59375 17.761719 95.160156 C 17.761719 95.726562 17.980469 95.988281 18.5 95.988281 Z M 18.5 95.988281 "/>
<path style=" stroke:none;fill-rule:nonzero;fill:rgb(27.058825%,27.058825%,27.058825%);fill-opacity:1;" d="M 20.910156 94.59375 L 20.910156 93.460938 L 26.058594 93.460938 L 26.058594 94.59375 Z M 23.277344 99.542969 L 25.363281 101.550781 L 23.601562 101.550781 L 21.539062 99.480469 L 21.539062 98.453125 L 23.363281 98.453125 C 23.90625 98.453125 24.082031 98.234375 24.082031 97.734375 L 24.082031 96.816406 C 24.082031 96.46875 23.992188 96.207031 23.515625 96.207031 C 23.039062 96.207031 22.953125 96.445312 22.953125 96.816406 L 22.953125 97.582031 L 21.582031 97.582031 L 21.582031 96.773438 C 21.582031 95.640625 22.171875 95.03125 23.515625 95.03125 C 24.863281 95.03125 25.449219 95.640625 25.449219 96.753906 L 25.449219 97.710938 C 25.449219 99 24.839844 99.523438 23.363281 99.523438 L 23.277344 99.523438 Z M 23.277344 99.542969 "/>
<path style=" stroke:none;fill-rule:nonzero;fill:rgb(27.058825%,27.058825%,27.058825%);fill-opacity:1;" d="M 31.355469 92.476562 C 31.355469 92.476562 30.289062 91.933594 29.097656 91.933594 C 28.164062 91.933594 27.792969 92.238281 27.792969 93.109375 L 27.792969 93.460938 L 28.617188 93.460938 L 28.617188 94.59375 L 27.792969 94.59375 L 27.792969 101.027344 L 26.425781 101.027344 L 26.425781 94.59375 L 25.601562 94.59375 L 25.601562 93.460938 L 26.425781 93.460938 L 26.425781 93.089844 C 26.425781 91.429688 27.335938 90.734375 28.988281 90.734375 C 30.335938 90.734375 31.355469 91.214844 31.355469 91.214844 Z M 31.355469 92.476562 "/>
<path style=" stroke:none;fill-rule:nonzero;fill:rgb(27.058825%,27.058825%,27.058825%);fill-opacity:1;" d="M 28.140625 94.59375 L 28.140625 93.460938 L 35.566406 93.460938 L 35.566406 94.59375 Z M 31.570312 100.503906 C 29.683594 100.503906 28.8125 99.585938 28.8125 97.996094 L 28.8125 95.664062 L 30.183594 95.664062 L 30.183594 97.996094 C 30.183594 98.890625 30.53125 99.28125 31.617188 99.28125 L 32.203125 99.28125 C 33.308594 99.28125 33.527344 98.890625 33.527344 97.996094 L 33.527344 96.863281 C 33.527344 96.46875 33.441406 96.230469 32.984375 96.230469 C 32.503906 96.230469 32.441406 96.46875 32.441406 96.863281 L 32.441406 98.171875 L 31.09375 98.171875 L 31.09375 96.816406 C 31.09375 95.683594 31.636719 95.007812 32.984375 95.007812 C 34.351562 95.007812 34.894531 95.683594 34.894531 96.816406 L 34.894531 97.972656 C 34.894531 99.609375 34.132812 100.480469 32.246094 100.480469 L 31.570312 100.480469 Z M 31.570312 100.503906 "/>
<path style=" stroke:none;fill-rule:nonzero;fill:rgb(27.058825%,27.058825%,27.058825%);fill-opacity:1;" d="M 54.003906 98.824219 L 54.003906 99.261719 C 54.003906 99.847656 54.242188 100.003906 54.871094 100.003906 L 56.152344 100.003906 L 56.152344 97.015625 L 52.851562 98.628906 L 52.851562 97.210938 L 53.4375 96.925781 L 52.742188 96.140625 L 52.742188 95.402344 C 52.742188 94.113281 53.460938 93.308594 54.914062 93.308594 C 55.4375 93.308594 55.847656 93.414062 56.152344 93.65625 L 56.152344 92.28125 L 57.519531 92.28125 L 57.519531 93.480469 L 58.324219 93.480469 L 58.324219 94.617188 L 57.519531 94.617188 L 57.519531 101.222656 L 54.632812 101.222656 C 53.308594 101.222656 52.613281 100.765625 52.613281 99.457031 L 52.613281 98.824219 Z M 54.089844 95.816406 L 54.609375 96.382812 L 56.152344 95.664062 L 56.152344 95.355469 C 56.109375 94.789062 55.738281 94.484375 55.089844 94.484375 C 54.503906 94.484375 54.089844 94.746094 54.089844 95.421875 Z M 54.089844 95.816406 "/>
<path style=" stroke:none;fill-rule:nonzero;fill:rgb(27.058825%,27.058825%,27.058825%);fill-opacity:1;" d="M 63.621094 92.523438 C 63.621094 92.523438 62.558594 91.976562 61.363281 91.976562 C 60.429688 91.976562 60.0625 92.28125 60.0625 93.152344 L 60.0625 93.503906 L 60.886719 93.503906 L 60.886719 94.636719 L 60.0625 94.636719 L 60.0625 101.070312 L 58.691406 101.070312 L 58.691406 94.636719 L 57.867188 94.636719 L 57.867188 93.503906 L 58.691406 93.503906 L 58.691406 93.132812 C 58.691406 91.476562 59.605469 90.777344 61.253906 90.777344 C 62.601562 90.777344 63.621094 91.257812 63.621094 91.257812 Z M 63.621094 92.523438 "/>
<path style=" stroke:none;fill-rule:nonzero;fill:rgb(27.058825%,27.058825%,27.058825%);fill-opacity:1;" d="M 60.429688 94.617188 L 60.429688 93.480469 L 67.855469 93.480469 L 67.855469 94.617188 Z M 63.839844 100.546875 C 61.949219 100.546875 61.082031 99.632812 61.082031 98.039062 L 61.082031 95.707031 L 62.449219 95.707031 L 62.449219 98.039062 C 62.449219 98.933594 62.796875 99.324219 63.882812 99.324219 L 64.46875 99.324219 C 65.574219 99.324219 65.792969 98.933594 65.792969 98.039062 L 65.792969 96.90625 C 65.792969 96.511719 65.707031 96.273438 65.25 96.273438 C 64.773438 96.273438 64.707031 96.511719 64.707031 96.90625 L 64.707031 98.214844 L 63.359375 98.214844 L 63.359375 96.863281 C 63.359375 95.726562 63.902344 95.050781 65.25 95.050781 C 66.617188 95.050781 67.160156 95.726562 67.160156 96.863281 L 67.160156 98.015625 C 67.160156 99.652344 66.402344 100.527344 64.511719 100.527344 L 63.839844 100.527344 Z M 63.839844 100.546875 "/>
<path style=" stroke:none;fill-rule:nonzero;fill:rgb(27.058825%,27.058825%,27.058825%);fill-opacity:1;" d="M 67.398438 93.503906 L 70.503906 93.503906 L 70.503906 94.636719 L 70.15625 94.636719 C 69.59375 94.636719 69.484375 95.050781 69.484375 95.640625 L 69.484375 99.238281 C 69.484375 99.742188 69.613281 99.957031 70.050781 99.957031 L 70.113281 99.957031 L 70.113281 101.09375 C 69.984375 101.113281 69.917969 101.113281 69.808594 101.113281 C 68.574219 101.113281 68.117188 100.308594 68.117188 99.0625 L 68.117188 96.054688 C 68.117188 95.421875 68.226562 94.964844 68.464844 94.636719 L 67.421875 94.636719 L 67.421875 93.503906 Z M 67.398438 93.503906 "/>
<path style=" stroke:none;fill-rule:nonzero;fill:rgb(27.058825%,27.058825%,27.058825%);fill-opacity:1;" d="M 71.851562 100.003906 C 71.003906 99.457031 70.59375 98.957031 70.59375 97.972656 L 70.59375 97.667969 C 70.59375 96.644531 70.917969 96.121094 71.851562 95.726562 L 73.414062 95.117188 L 73.414062 94.617188 L 69.941406 94.617188 L 69.941406 93.480469 L 75.566406 93.480469 L 75.566406 94.617188 L 74.761719 94.617188 L 74.761719 101.050781 L 73.546875 101.050781 Z M 71.332031 100.503906 C 71.894531 100.503906 72.070312 100.832031 72.070312 101.222656 C 72.070312 101.636719 71.894531 101.941406 71.332031 101.941406 C 70.742188 101.941406 70.59375 101.617188 70.59375 101.222656 C 70.59375 100.808594 70.742188 100.503906 71.332031 100.503906 Z M 73.414062 98.105469 L 73.414062 96.492188 L 72.503906 96.816406 C 72.046875 97.015625 71.960938 97.210938 71.960938 97.800781 C 71.960938 98.34375 72.023438 98.5625 72.589844 98.957031 L 73.5 99.566406 L 73.546875 99.542969 C 73.480469 99.171875 73.414062 98.695312 73.414062 98.105469 Z M 73.414062 98.105469 "/>
<path style=" stroke:none;fill-rule:nonzero;fill:rgb(27.058825%,27.058825%,27.058825%);fill-opacity:1;" d="M 75.066406 94.617188 L 75.066406 93.480469 L 75.890625 93.480469 L 75.890625 92.28125 L 77.257812 92.28125 L 77.257812 93.480469 L 78.082031 93.480469 L 78.082031 94.617188 L 77.257812 94.617188 L 77.257812 101.050781 L 75.890625 101.050781 L 75.890625 94.617188 Z M 75.066406 94.617188 "/>
<path style=" stroke:none;fill-rule:nonzero;fill:rgb(27.058825%,27.058825%,27.058825%);fill-opacity:1;" d="M 82.796875 94.617188 L 82.796875 101.050781 L 81.515625 101.050781 L 79.691406 100.371094 C 78.757812 100.003906 78.320312 99.566406 78.320312 98.539062 C 78.320312 97.820312 78.519531 97.320312 79.105469 96.96875 C 78.667969 96.773438 78.386719 96.359375 78.386719 95.75 L 78.386719 95.074219 C 78.386719 94.003906 78.863281 93.371094 80.167969 93.371094 C 80.253906 93.371094 80.386719 93.394531 80.472656 93.394531 L 80.472656 94.507812 L 80.386719 94.507812 C 79.949219 94.507812 79.753906 94.703125 79.753906 95.09375 L 79.753906 95.683594 C 79.753906 96.183594 80.039062 96.382812 80.386719 96.445312 L 81.425781 96.097656 L 81.425781 93.460938 L 83.597656 93.460938 L 83.597656 94.59375 L 82.796875 94.59375 Z M 80.210938 99.21875 L 81.472656 99.695312 L 81.472656 97.40625 L 80.210938 97.820312 C 79.777344 97.972656 79.691406 98.148438 79.691406 98.519531 C 79.691406 98.867188 79.777344 99.042969 80.210938 99.21875 Z M 80.210938 99.21875 "/>
<path style=" stroke:none;fill-rule:nonzero;fill:rgb(27.058825%,27.058825%,27.058825%);fill-opacity:1;" d="M 105.660156 93.503906 L 106.484375 93.503906 L 106.484375 94.636719 L 105.660156 94.636719 L 105.660156 101.070312 L 104.292969 101.070312 L 104.292969 97.582031 L 101.078125 99.457031 L 101.078125 98.039062 L 101.925781 97.539062 L 100.839844 96.382812 L 100.839844 95.597656 C 100.839844 94.308594 101.664062 93.4375 103.054688 93.4375 C 103.574219 93.4375 103.988281 93.546875 104.292969 93.785156 L 104.292969 92.304688 L 105.660156 92.304688 Z M 102.230469 96.03125 L 103.03125 96.882812 L 104.292969 96.140625 L 104.292969 95.507812 C 104.25 94.941406 103.878906 94.636719 103.25 94.636719 C 102.640625 94.636719 102.230469 94.921875 102.230469 95.597656 Z M 102.230469 96.03125 "/>
<path style=" stroke:none;fill-rule:nonzero;fill:rgb(27.058825%,27.058825%,27.058825%);fill-opacity:1;" d="M 105.464844 103.992188 L 104.378906 103.992188 C 103.46875 103.992188 102.988281 103.511719 102.988281 102.488281 C 102.988281 101.441406 103.46875 100.984375 104.507812 100.984375 L 105.140625 100.984375 C 105.984375 100.984375 106.269531 101.355469 106.746094 102.074219 L 107.898438 103.753906 L 106.441406 103.753906 L 105.746094 102.664062 C 105.441406 102.160156 105.3125 102.03125 104.855469 102.03125 L 104.640625 102.03125 C 104.292969 102.03125 104.183594 102.160156 104.183594 102.488281 C 104.183594 102.816406 104.292969 102.945312 104.617188 102.945312 L 105.464844 102.945312 Z M 105.464844 103.992188 "/>
<path style=" stroke:none;fill-rule:nonzero;fill:rgb(27.058825%,27.058825%,27.058825%);fill-opacity:1;" d="M 106.007812 93.503906 L 112.933594 93.503906 L 112.933594 94.636719 L 112.109375 94.636719 L 112.109375 101.070312 L 110.894531 101.070312 L 109.632812 98.476562 C 109.199219 97.582031 109.003906 97.144531 108.460938 97.144531 L 108.394531 97.144531 C 108.003906 97.144531 107.851562 97.363281 107.851562 97.777344 L 107.851562 97.820312 C 107.851562 98.234375 108.046875 98.410156 108.460938 98.410156 L 108.570312 98.410156 L 108.570312 99.523438 C 108.484375 99.542969 108.351562 99.542969 108.242188 99.542969 C 106.964844 99.542969 106.507812 98.910156 106.507812 97.800781 L 106.507812 97.734375 C 106.507812 96.601562 107.070312 95.921875 108.242188 95.921875 L 108.351562 95.921875 C 109.460938 95.921875 110.089844 96.578125 110.566406 97.800781 L 110.871094 98.605469 L 110.914062 98.585938 C 110.828125 98.082031 110.71875 97.339844 110.71875 96.621094 L 110.71875 94.636719 L 105.941406 94.636719 L 105.941406 93.503906 Z M 106.007812 93.503906 "/>
<path style=" stroke:none;fill-rule:nonzero;fill:rgb(27.058825%,27.058825%,27.058825%);fill-opacity:1;" d="M 118.144531 93.503906 L 118.972656 93.503906 L 118.972656 94.636719 L 118.144531 94.636719 L 118.144531 101.070312 L 116.777344 101.070312 L 116.777344 95.554688 C 116.757812 94.898438 116.320312 94.636719 115.671875 94.636719 C 114.996094 94.636719 114.5625 94.921875 114.5625 95.574219 L 114.5625 95.617188 L 114.886719 95.816406 C 115.5625 96.230469 116.0625 96.753906 116.0625 97.691406 C 116.0625 99.042969 115.324219 99.652344 113.695312 99.652344 C 113.519531 99.652344 113.238281 99.652344 113.109375 99.632812 L 113.109375 98.453125 L 113.78125 98.453125 C 114.410156 98.453125 114.691406 98.234375 114.691406 97.691406 C 114.691406 97.125 114.28125 96.839844 113.671875 96.535156 L 113.152344 96.25 L 113.152344 95.574219 C 113.152344 94.222656 114.0625 93.414062 115.429688 93.414062 C 115.996094 93.414062 116.453125 93.546875 116.777344 93.808594 L 116.777344 92.324219 L 118.144531 92.324219 Z M 118.144531 93.503906 "/>
<path style=" stroke:none;fill-rule:nonzero;fill:rgb(27.058825%,27.058825%,27.058825%);fill-opacity:1;" d="M 119.839844 90.296875 L 118.125 92.433594 L 116.757812 92.304688 L 118.363281 90.296875 Z M 119.839844 90.296875 "/>
<path style=" stroke:none;fill-rule:nonzero;fill:rgb(27.058825%,27.058825%,27.058825%);fill-opacity:1;" d="M 122.964844 95.117188 C 123.550781 96.164062 123.898438 96.621094 123.898438 97.710938 L 123.898438 99.019531 C 123.898438 100.570312 123.140625 101.15625 121.621094 101.15625 L 121.511719 101.15625 C 120.011719 101.15625 119.167969 100.570312 119.167969 99.019531 L 119.167969 96.316406 L 120.535156 96.316406 L 120.535156 96.730469 C 120.535156 97.144531 120.792969 97.277344 121.46875 97.277344 C 122.121094 97.277344 122.335938 97.167969 122.335938 96.730469 L 122.335938 96.621094 C 122.207031 96.339844 122.011719 96.03125 121.75 95.554688 L 121.230469 94.59375 L 118.472656 94.59375 L 118.472656 93.460938 L 120.644531 93.460938 C 120.449219 93.046875 120.339844 92.609375 120.339844 92.238281 C 120.339844 91.105469 121.035156 90.796875 121.726562 90.796875 C 122.140625 90.796875 122.421875 90.863281 122.445312 90.863281 L 122.445312 92.019531 L 122.25 92.019531 C 121.945312 92.019531 121.707031 92.085938 121.707031 92.457031 C 121.707031 92.761719 121.902344 93.152344 122.054688 93.460938 L 124.59375 93.460938 L 124.59375 94.59375 L 122.683594 94.59375 Z M 120.511719 98.277344 L 120.511719 98.976562 C 120.511719 99.652344 120.859375 99.894531 121.511719 99.894531 L 121.640625 99.894531 C 122.316406 99.894531 122.597656 99.652344 122.597656 98.976562 L 122.597656 98.214844 C 122.359375 98.410156 121.988281 98.453125 121.511719 98.453125 C 121.035156 98.453125 120.707031 98.367188 120.511719 98.277344 Z M 120.511719 98.277344 "/>
<path style=" stroke:none;fill-rule:nonzero;fill:rgb(27.058825%,27.058825%,27.058825%);fill-opacity:1;" d="M 124.140625 93.503906 L 131.066406 93.503906 L 131.066406 94.636719 L 130.242188 94.636719 L 130.242188 101.070312 L 129.023438 101.070312 L 127.765625 98.476562 C 127.332031 97.582031 127.136719 97.144531 126.59375 97.144531 L 126.527344 97.144531 C 126.136719 97.144531 125.984375 97.363281 125.984375 97.777344 L 125.984375 97.820312 C 125.984375 98.234375 126.179688 98.410156 126.59375 98.410156 L 126.699219 98.410156 L 126.699219 99.523438 C 126.613281 99.542969 126.484375 99.542969 126.375 99.542969 C 125.09375 99.542969 124.636719 98.910156 124.636719 97.800781 L 124.636719 97.734375 C 124.636719 96.601562 125.203125 95.921875 126.375 95.921875 L 126.484375 95.921875 C 127.589844 95.921875 128.222656 96.578125 128.699219 97.800781 L 129.003906 98.605469 L 129.046875 98.585938 C 128.960938 98.082031 128.851562 97.339844 128.851562 96.621094 L 128.851562 94.636719 L 124.074219 94.636719 L 124.074219 93.503906 Z M 124.140625 93.503906 "/>
<path style=" stroke:none;fill-rule:nonzero;fill:rgb(25.098041%,25.098041%,25.098041%);fill-opacity:1;" d="M 80.753906 11.214844 L 80.753906 7.75 L 98.929688 7.75 L 98.929688 11.214844 Z M 89.589844 11.695312 L 92.761719 12.285156 C 93.304688 12.285156 93.804688 12.175781 94.324219 11.980469 L 95.257812 11.652344 L 98.886719 11.652344 L 98.886719 22.121094 L 99.210938 24.824219 L 95.519531 24.824219 L 95.195312 24.039062 L 95.195312 15.230469 L 95.019531 14.835938 L 91.265625 14.835938 L 89.589844 14.445312 L 89.589844 15.511719 L 89.679688 15.578125 C 89.917969 15.601562 90.132812 15.578125 90.351562 15.46875 L 90.527344 15.359375 L 93.566406 15.359375 L 93.566406 20.964844 C 93.566406 21.640625 93.328125 22.230469 92.828125 22.777344 L 92.21875 23.386719 C 91.699219 23.886719 91.089844 24.128906 90.417969 24.128906 L 85.554688 24.128906 C 84.835938 24.128906 84.183594 23.867188 83.640625 23.320312 L 82.707031 22.382812 C 82.230469 21.882812 81.96875 21.292969 81.925781 20.617188 L 81.472656 13.222656 L 82.578125 12.875 C 83.011719 12.742188 83.445312 12.679688 83.902344 12.679688 L 85.207031 12.679688 L 85.464844 18.347656 C 85.464844 18.632812 85.554688 18.894531 85.726562 19.132812 C 86.050781 19.570312 86.464844 19.789062 86.964844 19.789062 L 89.332031 19.789062 C 89.808594 19.789062 90.199219 19.570312 90.480469 19.132812 C 90.546875 19.046875 90.589844 18.960938 90.632812 18.9375 C 90.675781 18.894531 90.722656 18.851562 90.742188 18.804688 C 90.765625 18.761719 90.785156 18.675781 90.785156 18.566406 L 90.785156 17.496094 L 90.265625 17.757812 L 87.636719 17.78125 C 87.355469 17.738281 87.136719 17.496094 86.941406 17.0625 C 86.746094 16.625 86.660156 16.277344 86.660156 15.992188 L 86.660156 10.277344 L 89.636719 10.039062 L 89.636719 11.695312 Z M 89.589844 11.695312 "/>
<path style=" stroke:none;fill-rule:nonzero;fill:rgb(25.098041%,25.098041%,25.098041%);fill-opacity:1;" d="M 103.664062 7.75 L 103.664062 24.890625 L 99.820312 24.890625 L 99.820312 7.75 Z M 103.664062 7.75 "/>
<path style=" stroke:none;fill-rule:nonzero;fill:rgb(25.098041%,25.098041%,25.098041%);fill-opacity:1;" d="M 117.796875 21.007812 C 117.796875 21.835938 117.515625 22.535156 116.929688 23.125 C 116.34375 23.714844 115.648438 23.996094 114.824219 23.996094 L 108.113281 23.996094 C 107.503906 23.996094 106.984375 23.800781 106.550781 23.40625 C 106.117188 23.015625 105.855469 22.515625 105.789062 21.902344 L 104.75 12.742188 L 107.941406 12.570312 L 108.460938 19.351562 C 108.484375 19.65625 108.527344 19.875 108.613281 20.003906 C 108.679688 20.136719 108.808594 20.222656 108.980469 20.246094 C 109.15625 20.265625 109.394531 20.289062 109.699219 20.289062 L 114.0625 20.289062 C 114.433594 20.289062 114.738281 20.160156 114.996094 19.898438 C 115.257812 19.636719 115.386719 19.328125 115.386719 18.960938 L 115.386719 16.605469 C 115.386719 16.234375 115.257812 15.925781 114.996094 15.664062 C 114.738281 15.402344 114.433594 15.273438 114.0625 15.273438 L 112.933594 15.273438 C 112.738281 15.273438 112.542969 15.339844 112.390625 15.492188 C 112.238281 15.644531 112.175781 15.820312 112.175781 16.035156 L 112.175781 17.324219 L 112.976562 17.324219 L 112.976562 16.40625 C 113 16.234375 113.085938 16.144531 113.238281 16.144531 L 113.824219 16.144531 C 114 16.167969 114.085938 16.253906 114.085938 16.40625 L 114.085938 18.9375 C 114.042969 19.265625 113.890625 19.417969 113.628906 19.417969 L 110.21875 19.417969 C 109.894531 19.351562 109.742188 19.199219 109.742188 18.9375 L 109.742188 12.875 C 109.742188 12.632812 109.828125 12.417969 110.003906 12.242188 C 110.175781 12.066406 110.371094 12 110.632812 11.980469 L 116.953125 11.980469 C 117.191406 11.980469 117.386719 12.066406 117.558594 12.242188 C 117.734375 12.417969 117.820312 12.613281 117.820312 12.851562 L 117.820312 21.007812 Z M 118.082031 11.195312 L 118.082031 7.75 L 104.792969 7.75 L 104.792969 11.214844 L 118.082031 11.214844 Z M 118.082031 11.195312 "/>
<path style=" stroke:none;fill-rule:nonzero;fill:rgb(25.098041%,25.098041%,25.098041%);fill-opacity:1;" d="M 119.078125 6.746094 C 119.078125 6.507812 119.015625 6.265625 118.863281 6.089844 C 118.710938 5.894531 118.515625 5.785156 118.253906 5.722656 L 111.5 4.152344 L 111.5 0.0078125 L 119.90625 2.273438 C 120.945312 2.558594 121.773438 3.105469 122.402344 3.910156 C 123.03125 4.71875 123.355469 5.65625 123.355469 6.703125 L 123.355469 24.890625 L 119.078125 24.890625 Z M 119.078125 6.746094 "/>
<path style=" stroke:none;fill-rule:nonzero;fill:rgb(25.098041%,25.098041%,25.098041%);fill-opacity:1;" d="M 124.289062 11.214844 L 124.289062 7.75 L 137.1875 7.75 L 137.1875 11.214844 Z M 137.101562 24.871094 L 133.367188 24.871094 L 133.367188 23.667969 C 133.367188 23.515625 133.195312 23.363281 132.867188 23.234375 C 132.519531 23.101562 132.171875 22.992188 131.78125 22.90625 C 131.390625 22.820312 131.128906 22.753906 130.957031 22.730469 L 125.355469 21.707031 C 125.027344 21.574219 124.855469 21.378906 124.855469 21.050781 L 124.855469 16.867188 C 124.855469 16.605469 124.984375 16.386719 125.246094 16.234375 L 129.003906 15.121094 L 129.023438 15.558594 C 128.980469 15.425781 128.589844 15.054688 127.851562 14.445312 C 127.113281 13.832031 125.984375 12.941406 124.464844 11.738281 L 124.464844 9.035156 L 126.332031 9.078125 L 127.394531 9.078125 L 127.851562 10.125 L 132.257812 13.617188 C 132.257812 13.769531 132.214844 14.773438 132.085938 16.667969 C 131.914062 16.734375 130.847656 17.257812 128.894531 18.21875 C 128.785156 18.304688 128.71875 18.457031 128.742188 18.675781 C 128.742188 18.894531 128.808594 19.046875 128.914062 19.113281 L 131.5 20.070312 C 131.976562 20.222656 132.476562 20.289062 132.976562 20.265625 L 133.300781 20.246094 L 133.300781 9.84375 L 137.167969 9.710938 L 137.167969 24.871094 Z M 128.199219 26.394531 L 128.785156 26.351562 C 129.21875 26.332031 129.609375 26.351562 129.957031 26.441406 C 130.304688 26.527344 130.675781 26.65625 131.066406 26.875 L 131.5 27.070312 L 132.019531 24.390625 L 131.957031 24.347656 C 131.628906 24.171875 131.304688 24.039062 131.023438 23.910156 C 130.738281 23.777344 130.4375 23.691406 130.132812 23.625 C 129.828125 23.5625 129.503906 23.515625 129.132812 23.496094 L 128.394531 23.453125 Z M 128.199219 26.394531 "/>
<path style=" stroke:none;fill-rule:nonzero;fill:rgb(25.098041%,25.098041%,25.098041%);fill-opacity:1;" d="M 80.777344 38.980469 L 80.777344 35.511719 L 94.066406 35.511719 L 94.066406 38.980469 Z M 87.226562 46.199219 C 87.378906 46.199219 87.507812 46.265625 87.636719 46.375 L 87.746094 46.480469 C 87.855469 46.589844 87.917969 46.722656 87.917969 46.875 L 87.917969 48.96875 C 87.917969 49.316406 87.722656 49.578125 87.332031 49.710938 L 84.816406 50.34375 C 84.664062 50.386719 84.488281 50.386719 84.316406 50.386719 L 83.382812 50.34375 C 82.816406 50.300781 82.339844 50.101562 81.949219 49.730469 C 81.558594 49.359375 81.339844 48.902344 81.273438 48.335938 L 80.839844 42.425781 C 80.839844 41.792969 81.144531 41.402344 81.753906 41.269531 L 85.75 40.679688 C 86.074219 40.636719 86.378906 40.703125 86.660156 40.878906 L 90.070312 42.621094 L 90.070312 38.085938 L 93.957031 37.910156 L 93.957031 52.652344 L 89.9375 52.828125 L 89.9375 45.085938 L 87.160156 43.886719 C 86.941406 43.777344 86.726562 43.734375 86.488281 43.777344 L 84.835938 44.105469 C 84.359375 44.214844 84.078125 44.496094 83.988281 45 L 83.96875 45.871094 C 83.96875 46.21875 83.988281 46.570312 84.011719 46.917969 L 84.054688 47.464844 C 84.140625 47.789062 84.316406 47.945312 84.597656 47.945312 L 85.507812 47.945312 L 85.507812 46.789062 C 85.507812 46.679688 85.53125 46.570312 85.597656 46.480469 C 85.726562 46.308594 85.878906 46.21875 86.074219 46.21875 L 87.226562 46.21875 Z M 87.226562 46.199219 "/>
<path style=" stroke:none;fill-rule:nonzero;fill:rgb(25.098041%,25.098041%,25.098041%);fill-opacity:1;" d="M 98.515625 35.535156 L 98.515625 52.675781 L 94.671875 52.675781 L 94.671875 35.535156 Z M 98.515625 35.535156 "/>
<path style=" stroke:none;fill-rule:nonzero;fill:rgb(25.098041%,25.098041%,25.098041%);fill-opacity:1;" d="M 110.980469 39.851562 L 110.785156 43.648438 L 109.785156 42.1875 C 109.523438 41.859375 109.132812 41.464844 108.65625 41.03125 C 108.15625 40.570312 107.636719 40.203125 107.050781 39.875 C 106.464844 39.546875 105.941406 39.394531 105.421875 39.417969 C 104.921875 39.4375 104.507812 39.765625 104.226562 40.375 C 104.769531 40.527344 105.246094 40.703125 105.636719 40.878906 C 106.027344 41.050781 106.441406 41.3125 106.832031 41.617188 C 107.222656 41.925781 107.570312 42.316406 107.851562 42.773438 C 108.136719 43.234375 108.265625 43.777344 108.265625 44.410156 L 108.265625 46.242188 C 108.265625 46.375 108.09375 46.679688 107.765625 47.113281 C 107.441406 47.550781 107.070312 47.964844 106.679688 48.359375 C 106.289062 48.75 105.984375 48.945312 105.769531 48.945312 C 104.421875 48.945312 103.03125 48.945312 101.597656 48.945312 C 101.253906 48.945312 100.90625 48.859375 100.601562 48.707031 C 100.296875 48.53125 100.058594 48.292969 99.882812 47.988281 C 99.710938 47.683594 99.625 47.375 99.625 47.027344 L 99.625 43.734375 L 102.925781 43.734375 L 102.925781 46.808594 L 102.683594 46.808594 C 103.054688 46.808594 103.359375 46.679688 103.597656 46.417969 C 103.835938 46.15625 103.964844 45.851562 103.964844 45.5 L 103.964844 42.753906 C 103.964844 42.207031 103.769531 41.75 103.402344 41.355469 C 103.011719 40.964844 102.554688 40.769531 102.011719 40.769531 L 100.6875 40.769531 L 100.6875 35.535156 L 106.050781 35.535156 C 107.203125 35.554688 108.136719 36.015625 108.894531 36.886719 Z M 114.195312 35.511719 L 114.214844 52.675781 L 110.480469 52.675781 L 110.351562 35.511719 Z M 114.195312 35.511719 "/>
<path style=" stroke:none;fill-rule:nonzero;fill:rgb(25.098041%,25.098041%,25.098041%);fill-opacity:1;" d="M 119.578125 52.652344 L 115.300781 52.652344 L 115.300781 34.464844 C 115.300781 33.417969 115.625 32.480469 116.257812 31.671875 C 116.886719 30.867188 117.734375 30.320312 118.753906 30.039062 L 129.15625 27.464844 L 129.15625 31.609375 L 120.402344 33.503906 C 120.164062 33.570312 119.96875 33.703125 119.816406 33.875 C 119.664062 34.074219 119.601562 34.289062 119.601562 34.53125 L 119.601562 52.652344 Z M 119.578125 52.652344 "/>
<path style=" stroke:none;fill-rule:nonzero;fill:rgb(25.098041%,25.098041%,25.098041%);fill-opacity:1;" d="M 120.578125 38.980469 L 120.578125 35.511719 L 132.0625 35.511719 L 132.0625 38.980469 Z M 128.308594 36.601562 L 132.042969 36.667969 L 132.042969 52.632812 L 128.308594 52.632812 L 128.308594 52.175781 C 128.308594 51.957031 128.242188 51.761719 128.089844 51.585938 C 127.9375 51.410156 127.765625 51.300781 127.527344 51.257812 L 121.425781 50.234375 C 121.078125 50.101562 120.902344 49.882812 120.902344 49.578125 L 120.902344 42.316406 C 120.902344 42.054688 121.035156 41.835938 121.292969 41.707031 L 128.285156 39.328125 L 128.285156 36.601562 Z M 128.175781 47.921875 L 128.175781 44.171875 C 128.175781 44.125 128.15625 44.082031 128.132812 44.039062 C 128.113281 43.996094 128.070312 43.972656 128.003906 43.953125 C 127.9375 43.929688 127.875 43.929688 127.765625 43.929688 C 127.65625 43.929688 127.527344 43.953125 127.351562 43.996094 L 124.074219 44.78125 C 123.835938 44.910156 123.726562 45.128906 123.769531 45.414062 L 123.921875 46.308594 C 124.007812 46.527344 124.160156 46.699219 124.355469 46.808594 L 127.960938 47.988281 Z M 123.792969 54.441406 L 124.378906 54.398438 C 124.8125 54.378906 125.203125 54.398438 125.550781 54.484375 C 125.898438 54.574219 126.265625 54.703125 126.65625 54.921875 L 127.089844 55.117188 L 127.613281 52.4375 L 127.546875 52.390625 C 127.222656 52.21875 126.894531 52.085938 126.613281 51.957031 C 126.332031 51.824219 126.027344 51.738281 125.722656 51.671875 C 125.417969 51.609375 125.09375 51.5625 124.726562 51.542969 L 123.988281 51.5 Z M 123.792969 54.441406 "/>
<path style=" stroke:none;fill-rule:nonzero;fill:rgb(25.098041%,25.098041%,25.098041%);fill-opacity:1;" d="M 133.28125 39 L 133.28125 35.535156 L 150 35.535156 L 150 39 Z M 140.207031 36.625 L 143.941406 36.691406 L 143.941406 52.652344 L 140.207031 52.652344 L 140.207031 51.367188 C 140.207031 51.128906 140.140625 50.929688 139.988281 50.757812 C 139.835938 50.582031 139.664062 50.472656 139.425781 50.429688 L 133.953125 49.40625 C 133.628906 49.273438 133.453125 49.078125 133.453125 48.75 L 133.453125 42.359375 C 133.453125 42.097656 133.585938 41.878906 133.84375 41.726562 L 140.207031 39.351562 Z M 140.078125 47.945312 L 140.078125 44.191406 C 140.078125 44.148438 140.054688 44.105469 140.035156 44.0625 C 140.011719 44.019531 139.96875 43.996094 139.902344 43.972656 C 139.835938 43.953125 139.773438 43.953125 139.664062 43.953125 C 139.554688 43.953125 139.425781 43.972656 139.25 44.019531 L 136.601562 44.804688 C 136.363281 44.933594 136.253906 45.152344 136.296875 45.433594 L 136.449219 46.328125 C 136.539062 46.546875 136.667969 46.722656 136.886719 46.832031 L 139.835938 48.007812 Z M 148.847656 42.03125 C 149.480469 42.402344 149.78125 42.90625 149.78125 43.539062 L 149.78125 47.550781 C 149.78125 48.007812 149.609375 48.421875 149.285156 48.75 C 148.957031 49.078125 148.546875 49.253906 148.089844 49.253906 L 145.527344 49.253906 L 145.527344 45.261719 L 145.808594 45.261719 C 146.046875 45.261719 146.242188 45.171875 146.394531 45.019531 C 146.546875 44.867188 146.632812 44.671875 146.632812 44.453125 L 146.632812 44.039062 L 143.03125 42.710938 L 143.703125 39.417969 Z M 148.847656 42.03125 "/>
<path style=" stroke:none;fill-rule:nonzero;fill:rgb(25.098041%,25.098041%,25.098041%);fill-opacity:1;" d="M 80.753906 66.808594 L 80.753906 63.339844 L 97.472656 63.339844 L 97.472656 66.808594 Z M 87.679688 64.410156 L 91.414062 64.476562 L 91.414062 80.4375 L 87.679688 80.4375 L 87.679688 79.152344 C 87.679688 78.914062 87.617188 78.714844 87.464844 78.542969 C 87.3125 78.367188 87.136719 78.257812 86.898438 78.214844 L 81.425781 77.191406 C 81.101562 77.058594 80.929688 76.863281 80.929688 76.535156 L 80.929688 70.101562 C 80.929688 69.839844 81.058594 69.621094 81.320312 69.46875 L 87.679688 67.09375 Z M 87.574219 75.726562 L 87.574219 71.976562 C 87.574219 71.933594 87.550781 71.890625 87.527344 71.847656 C 87.507812 71.804688 87.464844 71.78125 87.398438 71.757812 C 87.332031 71.738281 87.269531 71.738281 87.160156 71.738281 C 87.050781 71.738281 86.921875 71.757812 86.746094 71.804688 L 84.097656 72.589844 C 83.859375 72.71875 83.75 72.9375 83.792969 73.21875 L 83.945312 74.113281 C 84.03125 74.332031 84.164062 74.507812 84.378906 74.617188 L 87.332031 75.792969 Z M 96.324219 69.816406 C 96.929688 70.1875 97.257812 70.691406 97.257812 71.324219 L 97.257812 75.335938 C 97.257812 75.792969 97.082031 76.207031 96.757812 76.535156 C 96.433594 76.863281 96.019531 77.035156 95.5625 77.035156 L 93 77.035156 L 93 73.046875 L 93.28125 73.046875 C 93.523438 73.046875 93.71875 72.957031 93.871094 72.804688 C 94.019531 72.652344 94.109375 72.457031 94.109375 72.238281 L 94.109375 71.804688 L 90.503906 70.472656 L 91.175781 67.179688 Z M 96.324219 69.816406 "/>
<path style=" stroke:none;fill-rule:nonzero;fill:rgb(25.098041%,25.098041%,25.098041%);fill-opacity:1;" d="M 102.535156 80.460938 L 98.253906 80.460938 L 98.253906 62.273438 C 98.253906 61.226562 98.582031 60.289062 99.210938 59.480469 C 99.839844 58.671875 100.6875 58.128906 101.707031 57.84375 L 112.109375 55.269531 L 112.109375 59.414062 L 103.359375 61.3125 C 103.121094 61.378906 102.925781 61.507812 102.773438 61.683594 C 102.621094 61.878906 102.554688 62.097656 102.554688 62.335938 L 102.554688 80.460938 Z M 102.535156 80.460938 "/>
<path style=" stroke:none;fill-rule:nonzero;fill:rgb(25.098041%,25.098041%,25.098041%);fill-opacity:1;" d="M 103.488281 66.785156 L 103.488281 63.320312 L 116.777344 63.320312 L 116.777344 66.785156 Z M 109.917969 76.207031 C 110.066406 76.207031 110.199219 76.273438 110.328125 76.382812 L 110.4375 76.492188 C 110.546875 76.621094 110.609375 76.753906 110.609375 76.90625 L 110.609375 79 C 110.609375 79.347656 110.414062 79.609375 110.023438 79.742188 L 107.503906 80.375 C 107.355469 80.417969 107.179688 80.4375 107.007812 80.417969 L 106.074219 80.375 C 105.507812 80.332031 105.03125 80.132812 104.640625 79.761719 C 104.25 79.390625 104.03125 78.933594 103.964844 78.367188 L 103.53125 72.457031 C 103.53125 71.824219 103.835938 71.433594 104.445312 71.300781 L 108.441406 70.710938 C 108.765625 70.667969 109.070312 70.734375 109.351562 70.886719 L 112.761719 72.632812 L 112.761719 65.828125 L 116.648438 65.675781 L 116.667969 80.394531 L 112.628906 80.4375 L 112.628906 75.074219 L 109.851562 73.875 C 109.632812 73.742188 109.417969 73.722656 109.179688 73.765625 L 107.527344 74.09375 C 107.050781 74.203125 106.765625 74.507812 106.679688 75.007812 L 106.660156 75.882812 C 106.660156 76.230469 106.679688 76.578125 106.703125 76.929688 L 106.746094 77.496094 C 106.832031 77.820312 107.007812 77.976562 107.289062 77.976562 L 108.199219 77.976562 L 108.199219 76.820312 C 108.199219 76.710938 108.222656 76.601562 108.289062 76.492188 C 108.417969 76.316406 108.570312 76.25 108.765625 76.25 L 109.917969 76.25 Z M 104.488281 65.785156 L 106.660156 65.542969 L 106.660156 66.632812 L 110.804688 67.636719 L 110.804688 72.304688 L 108.027344 71.910156 L 107.917969 69.839844 L 103.859375 68.96875 Z M 104.488281 65.785156 "/>
<path style=" stroke:none;fill-rule:nonzero;fill:rgb(25.098041%,25.098041%,25.098041%);fill-opacity:1;" d="M 122.054688 80.460938 L 117.777344 80.460938 L 117.777344 62.273438 C 117.777344 61.226562 118.101562 60.289062 118.730469 59.480469 C 119.363281 58.671875 120.207031 58.128906 121.230469 57.84375 L 131.628906 55.269531 L 131.628906 59.414062 L 122.878906 61.3125 C 122.640625 61.378906 122.445312 61.507812 122.292969 61.683594 C 122.140625 61.878906 122.074219 62.097656 122.074219 62.335938 L 122.074219 80.460938 Z M 122.054688 80.460938 "/>
<path style=" stroke:none;fill-rule:nonzero;fill:rgb(25.098041%,25.098041%,25.098041%);fill-opacity:1;" d="M 122.988281 66.765625 L 122.988281 63.296875 L 135.886719 63.296875 L 135.886719 66.765625 Z M 123.8125 65.238281 L 127.546875 65.152344 L 127.546875 74.898438 C 127.570312 75.140625 127.589844 75.3125 127.632812 75.445312 C 127.679688 75.574219 127.742188 75.664062 127.828125 75.726562 C 127.917969 75.792969 128.046875 75.816406 128.199219 75.835938 C 128.351562 75.859375 128.546875 75.859375 128.785156 75.859375 L 131.671875 75.859375 C 132.152344 75.859375 132.5625 75.683594 132.910156 75.359375 C 133.257812 75.007812 133.410156 74.59375 133.410156 74.113281 L 133.410156 72.980469 C 133.410156 72.609375 133.28125 72.304688 133.019531 72.042969 C 132.757812 71.78125 132.457031 71.648438 132.085938 71.648438 L 132.019531 71.648438 C 131.804688 71.648438 131.628906 71.714844 131.476562 71.867188 C 131.324219 72.019531 131.261719 72.195312 131.261719 72.414062 L 131.261719 73.699219 L 128.851562 73.960938 L 128.851562 69.25 C 128.851562 69.011719 128.9375 68.816406 129.109375 68.640625 C 129.285156 68.464844 129.480469 68.378906 129.742188 68.378906 L 134.996094 68.402344 C 135.234375 68.402344 135.453125 68.488281 135.625 68.664062 C 135.800781 68.835938 135.886719 69.03125 135.886719 69.273438 L 135.886719 75.726562 C 135.886719 76.796875 135.515625 77.691406 134.757812 78.453125 C 133.996094 79.195312 133.105469 79.589844 132.042969 79.589844 L 126.179688 79.589844 C 125.570312 79.589844 125.050781 79.390625 124.617188 79 C 124.183594 78.605469 123.921875 78.105469 123.855469 77.496094 L 123.855469 65.238281 Z M 131.566406 63.210938 C 131.566406 62.96875 131.476562 62.753906 131.324219 62.554688 C 131.175781 62.359375 130.980469 62.230469 130.738281 62.183594 L 125.679688 61.398438 L 125.679688 57.257812 L 132.367188 58.71875 C 133.410156 59 134.234375 59.546875 134.867188 60.351562 C 135.496094 61.160156 135.820312 62.097656 135.820312 63.144531 L 135.820312 65.847656 L 131.542969 65.847656 L 131.542969 63.210938 Z M 131.566406 63.210938 "/>
</g>
</svg>
